<?xml version="1.0" encoding="UTF-8" standalone="no"?>
<!-- Generator: Adobe Illustrator 20.0.0, SVG Export Plug-In . SVG Version: 6.00 Build 0)  -->

<svg
   version="1.1"
   id="Layer_1"
   x="0px"
   y="0px"
   width="68px"
   height="68px"
   viewBox="0 0 68 68"
   style="enable-background:new 0 0 68 68;"
   xml:space="preserve"
   sodipodi:docname="eye.svg"
   inkscape:version="1.1.1 (c3084ef, 2021-09-22)"
   xmlns:inkscape="http://www.inkscape.org/namespaces/inkscape"
   xmlns:sodipodi="http://sodipodi.sourceforge.net/DTD/sodipodi-0.dtd"
   xmlns="http://www.w3.org/2000/svg"
   xmlns:svg="http://www.w3.org/2000/svg"><defs
   id="defs29" /><sodipodi:namedview
   id="namedview27"
   pagecolor="#ffffff"
   bordercolor="#666666"
   borderopacity="1.0"
   inkscape:pageshadow="2"
   inkscape:pageopacity="0.0"
   inkscape:pagecheckerboard="0"
   showgrid="false"
   inkscape:zoom="7.3919128"
   inkscape:cx="15.89575"
   inkscape:cy="21.442353"
   inkscape:window-width="1606"
   inkscape:window-height="969"
   inkscape:window-x="0"
   inkscape:window-y="25"
   inkscape:window-maximized="0"
   inkscape:current-layer="Layer_1"
   inkscape:snap-others="false"
   inkscape:object-nodes="false"
   inkscape:snap-nodes="false" />
<style
   type="text/css"
   id="style9">
	.st0{fill:none;stroke:#00DCF0;stroke-width:0.2835;stroke-linecap:round;stroke-linejoin:round;stroke-miterlimit:10;}
	.st1{fill:none;stroke:#000000;stroke-width:0.2835;stroke-linecap:round;stroke-linejoin:round;stroke-miterlimit:10;}
	.st2{fill:none;stroke:#F00000;stroke-width:0.2835;stroke-linecap:round;stroke-linejoin:round;stroke-miterlimit:10;}
</style>
<rect
   x="-8.5"
   y="-8.5"
   class="st0"
   width="85"
   height="85"
   id="rect11" />
<circle
   class="st0"
   cx="34"
   cy="34"
   r="34"
   id="circle13" />
<path
   id="scleraBack"
   class="st0"
   d="M34,10C20.7,10,10,20.7,10,34S20.7,58.1,34,58.1S58.1,47.3,58.1,34S47.3,10,34,10" />
<path
   id="scleraFront"
   class="st0"
   d="M34,17.7c9,0,16.3,7.3,16.3,16.3S43,50.3,34,50.3S17.7,43,17.7,34S25,17.7,34,17.7" />
<path
   id="iris"
   class="st1"
   d="M34,16.3c9.8,0,17.7,7.9,17.7,17.7S43.8,51.7,34,51.7S16.3,43.8,16.3,34S24.2,16.3,34,16.3" />
<path
   id="pupilMax"
   class="st1"
   d="m 33.932358,19.361307 c 8.349954,0 14.976901,6.539417 14.976901,14.489299 0,7.94988 -6.626947,14.617521 -14.976901,14.617521 -8.349952,0 -14.9769,-6.539418 -14.9769,-14.617521 0,-8.078106 6.759486,-14.489299 14.9769,-14.489299" />
<path
   id="pupilMin"
   class="st1"
   d="M34,31.2c1.6,0,2.8,1.3,2.8,2.8c0,1.6-1.3,2.8-2.8,2.8c-1.6,0-2.8-1.3-2.8-2.8S32.5,31.2,34,31.2  " />
<path
   id="lowerLidEdge"
   class="st2"
   d="m 68.519432,31.596056 c 0.09074,0.800171 0.09074,1.600342 0.09074,2.400513 0,21.404574 -15.697932,34.513603 -35.116182,34.513603 -16.060889,0 -29.6718118,-7.707875 -33.84582827,-23.911338"
   sodipodi:nodetypes="cssc" />
<path
   id="lowerLidClosed"
   class="st2"
   d="M 68.095207,30.304802 C 68.395165,35.008745 67.201677,44.18512 59.359363,52.309368 50.757488,59.676935 39.984985,63.372366 21.151894,59.43856 10.435783,55.611662 6.4551801,50.851131 2.2617538,47.158198 -0.46301089,44.758639 -1.3952216,44.951167 -1.595194,45.592616"
   sodipodi:nodetypes="cccsc" />
<path
   id="lowerLidOpen"
   class="st2"
   d="M 68.2,31.7 C 69.2,44.1 63.9,54.3 56.4,60.3 45.3,69.1 33.094576,67.645758 24.594576,64.545758 5.7769864,56.14174 4.521866,52.246193 1.0325452,47.765807 -1.6,43.24717 -1.5,46.6 -1.6,44.6"
   sodipodi:nodetypes="ccccc" />
<path
   id="upperLidEdge"
   class="st2"
   d="m 0.6082706,43.306529 c -0.62506866,-2.721795 -0.98225075,-5.534316 -0.98225075,-8.437564 0,-19.415471 15.44812515,-35.11115568 34.55736715,-35.11115568 17.9484,0 32.682161,13.79042768 34.378776,31.57282168" />
<path
   id="upperLidClosed"
   class="st2"
   d="M 68.152096,31.747502 C 66.196113,41.104661 64.437013,46.412617 55.840328,53.78305 46.569381,62.564869 24.822325,61.560867 16.214632,56.743351 7.0298271,51.968908 10.418416,53.31104 3.4732945,48.475834 0.93491573,46.128039 -0.61123917,44.735894 -0.81096387,43.125501"
   sodipodi:nodetypes="ccccc"
   style="fill-rule:evenodd" />
<path
   id="upperLidOpen"
   class="st2"
   d="M 68.094278,28.916575 C 68.524877,15.360682 58.399133,4.0768195 50.430845,-0.04537487 43.539161,-4.8046759 30.324298,-6.7262759 17.655761,1.9068748 3.8723927,11.314795 3.6456065,17.622004 -0.61053935,28.126084 -1.6003111,36.239292 -1.937392,34.450646 -2.2414369,43.194479"
   sodipodi:nodetypes="ccccc" />
</svg>
