<svg xmlns="http://www.w3.org/2000/svg" viewBox="0 0 85.28 85.28"><defs><style>.cls-1,.cls-2,.cls-3{fill:none;stroke-linecap:round;stroke-linejoin:round;stroke-width:0.28px;}.cls-1{stroke:#00dcf0;}.cls-2{stroke:#000;}.cls-3{stroke:#f00000;}</style></defs><g id="unamed"><circle class="cls-1" cx="42.64" cy="42.64" r="34"/><rect class="cls-1" x="0.14" y="0.14" width="85" height="85"/></g><g id="scleraBack"><path id="scleraBack-2" data-name="scleraBack" class="cls-1" d="M34,10A24.05,24.05,0,1,0,58.1,34,23.94,23.94,0,0,0,34,10" transform="translate(8.64 8.64)"/></g><g id="scleraFront"><path id="scleraFront-2" data-name="scleraFront" class="cls-1" d="M34,17.7A16.3,16.3,0,1,1,17.7,34,16.3,16.3,0,0,1,34,17.7" transform="translate(8.64 8.64)"/></g><g id="iris"><path id="iris-2" data-name="iris" class="cls-2" d="M34,16.3A17.7,17.7,0,1,1,16.3,34,17.67,17.67,0,0,1,34,16.3" transform="translate(8.64 8.64)"/></g><g id="pupilMax"><path id="pupilMax-2" data-name="pupilMax" class="cls-2" d="M34,22.7A11.35,11.35,0,1,1,22.7,34,11.29,11.29,0,0,1,34,22.7" transform="translate(8.64 8.64)"/></g><g id="pupilMin"><path id="pupilMin-2" data-name="pupilMin" class="cls-2" d="M34,31.2A2.8,2.8,0,1,1,31.2,34,2.86,2.86,0,0,1,34,31.2" transform="translate(8.64 8.64)"/></g><g id="lowerLidEdge"><path id="lowerLidEdge-2" data-name="lowerLidEdge" class="cls-3" d="M72.7,31.6a19.27,19.27,0,0,1,.1,2.4,38.75,38.75,0,0,1-76,10.6" transform="translate(8.64 8.64)"/></g><g id="lowerLidClosed"><path id="lowerLidClosed-2" data-name="lowerLidClosed" class="cls-3" d="M68.1,30.3c.3,7.5-1,18.75-9.6,25.74-10.4,8.53-25.4,6.14-37.2.52C9.5,51.1,8.3,47.35,2,50.93c-3.9,2.22-3.4,2.73-3.6,3.75" transform="translate(8.64 8.64)"/></g><g id="lowerLidOpen"><path id="lowerLidOpen-2" data-name="lowerLidOpen" class="cls-3" d="M68.2,31.7c1,13-4.3,23.63-11.8,29.9C45.3,70.8,33,68.29,24.5,65.05,4.9,57.63,5.8,49.37,1.6,48.43c-2-.42-3.1-1.15-3.2-3.24" transform="translate(8.64 8.64)"/></g><g id="upperLidEdge"><path id="upperLidEdge-2" data-name="upperLidEdge" class="cls-3" d="M-3.6,43.3A40.81,40.81,0,0,1-4.7,34a38.7,38.7,0,0,1,77.2-3.9" transform="translate(8.64 8.64)"/></g><g id="upperLidClosed"><path id="upperLidClosed-2" data-name="upperLidClosed" class="cls-3" d="M68.2,31.7c-.2,8.69-2.8,17.85-10.8,24-9,6.94-18.7,6.31-33.5,1.1C8.2,51.28,7,50.49,1.4,51.6c-2,.31-2.6-.32-2.8-1.74" transform="translate(8.64 8.64)"/></g><g id="upperLidOpen"><path id="upperLidOpen-2" data-name="upperLidOpen" class="cls-3" d="M68.1,30.89C66.5,19.73,58.9,11.05,53.2,7.61c-6.8-4.1-20.3-7.44-32.8,0C6.8,15.72,7.2,21.92,1,29.37c-2.6,3.14-2,6.29-2.3,13.83" transform="translate(8.64 8.64)"/></g></svg>